<?xml version="1.0" standalone="no"?>
<!DOCTYPE svg PUBLIC "-//W3C//DTD SVG 20010904//EN"
 "http://www.w3.org/TR/2001/REC-SVG-20010904/DTD/svg10.dtd">
<svg version="1.0" xmlns="http://www.w3.org/2000/svg"
 width="750.000000pt" height="750.000000pt" viewBox="0 0 750.000000 750.000000"
 preserveAspectRatio="xMidYMid meet">
<metadata>
Created by potrace 1.14, written by Peter Selinger 2001-2017
</metadata>
<g transform="translate(0.000000,750.000000) scale(0.100000,-0.100000)"
fill="#000000" stroke="none">
<path d="M0 7486 c0 -14 18 -16 158 -15 184 1 164 16 -35 26 -110 5 -123 4
-123 -11z"/>
<path d="M1480 7485 c-74 -7 -155 -14 -179 -14 -24 -1 -41 -4 -37 -8 10 -10
1207 -14 1224 -4 55 31 -749 51 -1008 26z"/>
<path d="M3885 7489 c-71 -5 -177 -15 -235 -23 l-105 -14 100 -2 c255 -6 1088
-2 1070 5 -5 2 -84 11 -175 20 -210 20 -488 26 -655 14z"/>
<path d="M6120 7485 c-8 -2 -84 -9 -168 -16 -84 -7 -151 -14 -148 -16 2 -2 47
-5 100 -6 53 -1 96 -5 96 -8 0 -3 108 -5 240 -4 137 2 240 -1 240 -6 0 -5 12
-6 26 -3 14 4 94 7 177 9 84 1 179 3 212 5 l60 3 -65 8 c-179 23 -416 39 -576
38 -99 -1 -186 -3 -194 -4z m707 -41 c-3 -3 -12 -4 -19 -1 -8 3 -5 6 6 6 11 1
17 -2 13 -5z"/>
<path d="M1198 7453 c7 -3 16 -2 19 1 4 3 -2 6 -13 5 -11 0 -14 -3 -6 -6z"/>
<path d="M3515 7450 c-3 -5 -2 -10 4 -10 5 0 13 5 16 10 3 6 2 10 -4 10 -5 0
-13 -4 -16 -10z"/>
<path d="M6988 7433 c6 -2 18 -2 25 0 6 3 1 5 -13 5 -14 0 -19 -2 -12 -5z"/>
<path d="M7048 7433 c7 -3 16 -2 19 1 4 3 -2 6 -13 5 -11 0 -14 -3 -6 -6z"/>
<path d="M400 7324 c-307 -23 -332 -26 -327 -30 7 -7 478 -16 767 -14 157 1
312 2 345 2 33 0 83 1 110 0 66 0 196 5 215 8 8 1 -59 11 -150 21 -226 26
-709 33 -960 13z"/>
<path d="M2795 7320 c-66 -5 -201 -16 -300 -25 -99 -8 -211 -17 -250 -18 -76
-3 598 -9 890 -9 221 0 545 9 551 15 2 2 -76 11 -173 21 -215 20 -554 28 -718
16z"/>
<path d="M5020 7315 c-8 -2 -118 -12 -245 -22 l-230 -18 110 -7 c61 -3 335 -4
610 -2 275 3 550 5 610 6 105 0 107 0 45 8 -181 24 -449 40 -657 39 -125 -1
-235 -3 -243 -4z"/>
<path d="M7325 7314 c-102 -6 -371 -26 -393 -29 -13 -2 -77 -7 -143 -11 -66
-4 -117 -9 -115 -12 3 -2 59 -4 126 -3 73 0 120 -3 120 -9 0 -6 7 -10 15 -10
8 0 15 5 15 11 0 5 5 7 12 3 17 -11 217 -11 221 0 2 5 9 6 17 1 17 -10 128
-16 134 -6 4 6 69 7 91 1 6 -1 25 -2 43 -1 30 1 32 3 32 36 l0 35 -62 -2 c-35
-1 -85 -3 -113 -4z"/>
<path d="M13 7293 c9 -2 25 -2 35 0 9 3 1 5 -18 5 -19 0 -27 -2 -17 -5z"/>
<path d="M1548 7283 c7 -3 16 -2 19 1 4 3 -2 6 -13 5 -11 0 -14 -3 -6 -6z"/>
<path d="M0 7136 c0 -26 8 -27 215 -25 109 2 126 2 145 -2 8 -1 31 -1 50 1 28
2 -326 47 -392 49 -12 1 -18 -7 -18 -23z"/>
<path d="M1735 7154 c-369 -26 -501 -38 -508 -44 -4 -4 16 -7 45 -7 29 0 287
-3 573 -6 286 -3 567 -3 625 1 l105 7 -105 13 c-223 26 -609 45 -735 36z"/>
<path d="M3860 7134 c-19 -2 -120 -11 -225 -20 -104 -9 -192 -18 -193 -19 -9
-8 972 -12 1253 -5 158 4 158 4 -55 26 -144 15 -695 28 -780 18z"/>
<path d="M5920 7120 c-113 -10 -221 -20 -240 -22 -19 -2 35 -5 120 -6 85 -2
223 -4 305 -5 86 -1 153 -6 158 -12 4 -6 10 -5 16 4 7 11 13 12 23 4 8 -7 28
-8 55 -4 23 5 46 5 52 1 6 -3 80 -5 163 -3 84 1 245 3 358 4 l205 3 -230 23
c-331 33 -714 38 -985 13z"/>
<path d="M2668 7093 c6 -2 18 -2 25 0 6 3 1 5 -13 5 -14 0 -19 -2 -12 -5z"/>
<path d="M3398 7093 c7 -3 16 -2 19 1 4 3 -2 6 -13 5 -11 0 -14 -3 -6 -6z"/>
<path d="M4938 7083 c6 -2 18 -2 25 0 6 3 1 5 -13 5 -14 0 -19 -2 -12 -5z"/>
<path d="M300 6957 c-262 -20 -283 -22 -187 -25 59 -1 106 -6 103 -10 -5 -8
705 -7 1020 2 116 3 214 3 217 0 7 -8 137 -11 137 -3 0 3 -107 16 -237 29
-334 33 -665 35 -1053 7z"/>
<path d="M2565 6939 c-121 -10 -258 -19 -305 -20 -311 -10 778 -17 1385 -9
l140 2 -135 14 c-298 30 -375 34 -615 33 -143 -1 -344 -9 -470 -20z"/>
<path d="M5050 6954 c-19 -2 -132 -12 -250 -21 -203 -17 -211 -18 -135 -24 79
-6 1325 -2 1331 4 2 2 -85 12 -194 22 -179 17 -657 29 -752 19z"/>
<path d="M7325 6953 c-44 -2 -186 -12 -315 -23 -129 -11 -259 -21 -290 -22
-37 -1 -22 -3 45 -8 55 -3 105 -3 112 2 6 5 14 5 17 -1 3 -5 30 -7 59 -5 38 4
48 2 37 -5 -8 -6 -10 -11 -4 -11 6 0 14 3 17 7 10 9 397 11 403 1 3 -4 15 -3
28 2 12 4 31 8 42 7 15 -2 20 6 22 31 l3 32 -48 -2 c-26 -1 -84 -3 -128 -5z"/>
<path d="M4478 6903 c18 -2 45 -2 60 0 15 2 0 4 -33 4 -33 0 -45 -2 -27 -4z"/>
<path d="M6038 6903 c7 -3 16 -2 19 1 4 3 -2 6 -13 5 -11 0 -14 -3 -6 -6z"/>
<path d="M6113 6903 c9 -2 23 -2 30 0 6 3 -1 5 -18 5 -16 0 -22 -2 -12 -5z"/>
<path d="M0 6777 l0 -25 178 0 c189 1 184 8 -18 27 -69 7 -133 15 -142 17 -14
4 -18 -1 -18 -19z"/>
<path d="M1425 6770 c-285 -26 -297 -27 -170 -27 61 0 358 -2 660 -5 303 -3
566 -2 585 1 25 4 -12 12 -130 25 -240 28 -668 31 -945 6z"/>
<path d="M3860 6768 c-69 -4 -177 -14 -240 -22 l-115 -13 75 -3 c41 -1 79 -2
84 -1 5 1 59 1 120 1 156 -3 725 -2 886 0 l135 3 -116 12 c-316 35 -568 42
-829 23z"/>
<path d="M6070 6769 c-58 -5 -163 -15 -235 -23 -127 -15 -128 -15 -32 -10 65
4 103 2 112 -6 7 -6 16 -7 19 -2 3 4 33 6 68 4 35 -2 160 -5 278 -6 130 0 218
-5 222 -11 5 -7 8 -7 8 0 0 11 275 13 286 2 4 -3 22 0 41 8 38 16 67 20 46 7
-9 -6 130 -8 147 -2 3 1 -69 11 -160 21 -192 22 -640 32 -800 18z"/>
<path d="M360 6756 c0 -2 9 -6 20 -9 11 -3 18 -1 14 4 -5 9 -34 13 -34 5z"/>
<path d="M4818 6723 c6 -2 18 -2 25 0 6 3 1 5 -13 5 -14 0 -19 -2 -12 -5z"/>
<path d="M7068 6723 c7 -3 16 -2 19 1 4 3 -2 6 -13 5 -11 0 -14 -3 -6 -6z"/>
<path d="M470 6610 c-52 -4 -180 -13 -285 -21 -165 -11 -183 -14 -140 -22 28
-5 61 -8 75 -6 14 1 50 1 80 0 72 -2 890 -2 1141 0 108 0 210 -2 227 -6 16 -3
33 -2 36 3 3 5 -36 12 -87 16 -51 3 -150 13 -222 22 -149 17 -677 27 -825 14z"/>
<path d="M2645 6585 c-88 -7 -216 -17 -285 -22 l-125 -8 90 -5 c79 -4 385 -4
1198 0 121 1 217 3 215 5 -1 2 -112 13 -245 24 -277 24 -593 26 -848 6z"/>
<path d="M5040 6594 c-352 -30 -511 -44 -540 -47 -19 -2 269 -2 640 1 371 2
731 4 800 4 l125 0 -190 19 c-179 18 -720 33 -835 23z"/>
<path d="M7236 6590 c-231 -15 -415 -34 -410 -42 3 -5 31 -6 61 -3 33 3 61 1
69 -6 7 -6 19 -7 25 -3 15 9 197 8 238 -1 16 -3 32 -2 35 3 3 5 22 9 43 10 21
1 33 -2 26 -6 -6 -4 31 -7 83 -7 l94 0 0 33 0 32 -72 -1 c-40 -1 -127 -5 -192
-9z"/>
<path d="M1683 6553 c9 -2 25 -2 35 0 9 3 1 5 -18 5 -19 0 -27 -2 -17 -5z"/>
<path d="M6168 6543 c7 -3 16 -2 19 1 4 3 -2 6 -13 5 -11 0 -14 -3 -6 -6z"/>
<path d="M6678 6543 c23 -2 59 -2 80 0 20 2 1 4 -43 4 -44 0 -61 -2 -37 -4z"/>
<path d="M0 6406 l0 -26 253 2 c138 1 236 3 217 5 -19 2 -111 10 -205 18 -93
9 -191 18 -217 22 -47 5 -48 5 -48 -21z"/>
<path d="M1590 6421 c-47 -5 -168 -14 -270 -21 -102 -7 -188 -16 -192 -19 -8
-7 314 -12 1026 -14 285 -1 499 1 475 5 -253 41 -835 68 -1039 49z"/>
<path d="M6190 6414 c-19 -2 -135 -11 -257 -21 -122 -9 -221 -19 -218 -21 2
-2 130 -5 284 -7 154 -2 285 -6 291 -10 6 -4 17 -1 25 5 8 6 18 9 23 6 8 -5
399 -7 732 -4 l105 1 -75 8 c-283 31 -424 41 -635 44 -132 2 -256 2 -275 -1z"/>
<path d="M3682 6390 c-194 -19 -260 -30 -167 -28 28 0 59 -3 69 -8 14 -5 17
-4 12 4 -10 16 122 6 142 -10 13 -11 14 -9 7 11 -5 18 -4 22 6 15 8 -4 23 -9
34 -11 11 -2 27 -4 36 -6 8 -1 23 -10 33 -19 21 -21 33 -24 17 -4 -10 11 -8
16 10 21 11 4 225 7 475 6 250 0 454 3 454 7 0 5 -100 16 -222 25 -287 22
-648 21 -906 -3z"/>
<path d="M793 6373 c9 -2 23 -2 30 0 6 3 -1 5 -18 5 -16 0 -22 -2 -12 -5z"/>
<path d="M858 6373 c6 -2 18 -2 25 0 6 3 1 5 -13 5 -14 0 -19 -2 -12 -5z"/>
<path d="M923 6373 c15 -2 39 -2 55 0 15 2 2 4 -28 4 -30 0 -43 -2 -27 -4z"/>
<path d="M1028 6373 c12 -2 30 -2 40 0 9 3 -1 5 -23 4 -22 0 -30 -2 -17 -4z"/>
<path d="M4858 6363 c12 -2 30 -2 40 0 9 3 -1 5 -23 4 -22 0 -30 -2 -17 -4z"/>
<path d="M5618 6363 c18 -2 45 -2 60 0 15 2 0 4 -33 4 -33 0 -45 -2 -27 -4z"/>
<path d="M4978 6353 c7 -3 16 -2 19 1 4 3 -2 6 -13 5 -11 0 -14 -3 -6 -6z"/>
<path d="M5088 6353 c7 -3 16 -2 19 1 4 3 -2 6 -13 5 -11 0 -14 -3 -6 -6z"/>
<path d="M3945 6330 c3 -5 14 -10 23 -10 15 0 15 2 2 10 -20 13 -33 13 -25 0z"/>
<path d="M3691 6271 c-18 -14 -20 -20 -10 -23 8 -3 11 -9 7 -13 -4 -4 -13 -3
-20 2 -8 6 -48 6 -108 1 -52 -5 -230 -8 -395 -8 -208 1 -389 -5 -590 -19 -159
-12 -315 -22 -345 -24 -153 -9 594 -13 820 -4 l155 6 -70 -34 c-38 -19 -107
-63 -152 -99 -46 -37 -88 -66 -94 -66 -5 0 -7 -4 -4 -10 3 -5 3 -10 -2 -10
-10 0 -43 -57 -43 -75 0 -8 -5 -17 -12 -21 -8 -5 -9 -2 -4 11 6 18 6 18 -11 3
-18 -16 -149 -29 -553 -57 l-115 -8 90 -3 c103 -3 302 -3 420 1 76 2 80 1 86
-22 4 -13 7 -18 8 -11 1 6 8 12 16 12 17 0 20 -16 5 -25 -6 -4 -8 -10 -6 -14
3 -4 -4 -31 -13 -61 l-18 -55 -79 1 c-44 1 -178 12 -299 24 -195 20 -259 22
-555 17 -317 -5 -644 -27 -678 -46 -8 -5 312 -8 712 -7 399 1 726 -2 726 -7 0
-4 5 -5 11 -2 13 8 139 6 139 -2 0 -9 -55 -89 -69 -101 -9 -8 -10 -11 -3 -7
19 10 14 -13 -6 -24 -14 -8 -257 -30 -492 -45 -30 -1 5 -3 78 -3 72 0 135 -3
139 -6 3 -4 12 -2 20 4 7 6 13 9 13 7 0 -6 -27 -64 -41 -92 -7 -13 -7 -16 0
-11 7 3 11 -2 11 -14 0 -20 -4 -20 -142 -13 -291 14 -636 6 -943 -22 -159 -15
-294 -28 -300 -30 -5 -2 268 -2 607 0 339 1 622 5 627 9 6 3 11 0 11 -7 1 -7
7 -2 15 12 11 19 14 21 15 7 0 -14 5 -16 25 -11 16 4 25 2 25 -6 0 -7 7 -10
15 -6 8 3 15 1 15 -4 0 -21 57 -73 107 -98 52 -27 53 -29 36 -45 -15 -13 -59
-20 -193 -31 l-175 -15 133 4 c97 3 132 0 132 -8 0 -7 4 -6 10 3 7 12 12 12
22 2 10 -10 10 -17 0 -32 -16 -26 -15 -31 3 -24 11 5 15 -1 16 -22 1 -21 3
-24 6 -9 10 40 21 36 21 -8 -1 -34 -5 -44 -15 -40 -7 3 -13 -1 -13 -9 0 -10
-14 -12 -72 -6 -40 4 -212 10 -383 14 -307 6 -346 5 -775 -31 -102 -8 -212
-16 -245 -18 -33 -2 285 -3 708 -2 658 2 767 0 767 -12 0 -8 5 -11 11 -7 7 4
9 -2 7 -17 -2 -19 1 -24 17 -22 11 1 44 -12 72 -28 49 -28 65 -50 44 -63 -15
-9 -189 -27 -401 -40 l-205 -14 277 2 c221 1 279 -2 283 -12 3 -7 10 -10 15
-7 6 4 15 -8 22 -25 7 -23 13 -28 19 -19 16 27 21 -2 5 -35 -9 -19 -16 -41
-16 -50 0 -21 -32 -21 -230 1 -249 27 -717 23 -1030 -10 l-245 -25 215 -2
c118 -1 377 0 575 1 198 2 431 3 519 3 156 -1 159 -1 177 -25 l18 -24 -5 25
c-4 22 -3 21 13 -7 35 -62 66 -76 159 -76 63 0 84 -3 88 -14 4 -10 -1 -14 -17
-13 -12 1 -24 1 -27 0 -3 -2 -21 -4 -40 -5 -19 -2 -161 -15 -315 -29 -154 -14
-311 -27 -350 -29 -38 -2 11 -4 110 -4 99 -1 191 -4 205 -7 24 -6 56 -9 225
-22 44 -4 86 -11 93 -17 8 -6 12 -6 12 1 0 6 26 9 66 8 52 -2 68 -6 76 -20 8
-15 12 -16 19 -5 6 10 9 8 9 -8 0 -12 -3 -23 -7 -26 -5 -2 -2 -2 5 -1 7 2 16
-4 19 -14 3 -9 15 -27 26 -39 10 -12 16 -26 13 -31 -7 -12 -129 -7 -466 19
-349 27 -696 35 -900 19 -252 -18 -548 -47 -520 -50 110 -12 903 -11 1185 1
22 1 63 -1 90 -4 98 -13 243 -20 414 -21 130 -1 175 -4 179 -14 2 -6 8 -9 13
-6 6 3 20 7 32 9 12 1 27 4 32 5 18 6 65 -12 74 -28 5 -8 14 -12 20 -8 6 4 9
12 6 17 -4 5 -1 9 4 9 6 0 11 -9 11 -21 0 -26 26 -55 33 -36 3 6 6 2 6 -10 1
-23 -1 -23 -116 -23 -145 0 -353 -14 -628 -41 -115 -11 -275 -24 -355 -28
l-145 -8 170 -3 c209 -4 223 -5 310 -16 39 -5 199 -9 358 -9 158 0 287 -3 287
-6 0 -3 21 -5 47 -4 37 0 49 5 51 18 2 9 7 17 12 17 5 0 7 -7 4 -15 -4 -9 1
-18 11 -21 9 -4 28 -17 42 -30 14 -13 45 -31 69 -40 36 -14 44 -22 45 -43 2
-24 2 -24 6 -3 3 13 0 29 -6 36 -6 7 -7 16 -3 20 4 4 8 12 8 17 1 5 3 11 4 14
1 3 3 8 4 13 4 19 23 40 42 46 15 4 29 -3 54 -29 19 -19 31 -35 27 -35 -3 0
-2 -12 4 -26 12 -34 -8 -59 -57 -69 -37 -7 -39 -24 -2 -20 13 1 16 0 8 -2 -18
-5 -40 -48 -40 -80 0 -13 -5 -23 -11 -23 -7 0 -9 -9 -6 -22 4 -12 2 -27 -4
-34 -7 -8 -7 -14 1 -19 5 -3 10 -1 10 4 0 6 5 11 10 11 6 0 10 -5 10 -11 0
-15 52 -69 67 -69 7 0 13 -4 13 -10 0 -5 -4 -10 -10 -10 -5 0 -7 -6 -4 -14 8
-20 -58 -11 -173 25 -103 33 -195 93 -237 156 -35 51 -33 72 14 118 21 22 39
43 40 48 0 11 -52 -17 -87 -47 -25 -21 -37 -24 -93 -21 -36 2 -117 7 -180 10
-63 3 -221 15 -350 26 -299 26 -692 28 -939 5 -313 -29 -401 -39 -396 -44 3
-4 274 -7 603 -7 328 -1 755 -3 949 -6 l352 -4 -19 -20 c-11 -11 -50 -37 -88
-58 -65 -35 -78 -38 -198 -47 -71 -6 -223 -20 -339 -30 -115 -11 -233 -20
-262 -20 -28 0 -55 -5 -58 -11 -5 -7 12 -10 52 -8 33 1 65 -1 71 -5 17 -11
473 -15 501 -5 l26 9 -25 -20 c-14 -11 -67 -46 -118 -77 -91 -55 -93 -55 -150
-49 -31 3 -156 10 -276 16 -249 10 -509 1 -841 -30 -121 -11 -263 -24 -315
-28 -57 -5 199 -8 642 -8 405 1 734 -2 732 -5 -2 -4 -56 -35 -120 -70 -91 -50
-134 -82 -200 -146 -46 -45 -84 -87 -84 -92 0 -5 -71 -12 -157 -15 -212 -9
-742 -58 -708 -66 36 -9 801 6 817 16 4 3 8 -1 8 -8 0 -29 -72 -327 -83 -345
-4 -6 -84 -13 -179 -16 -150 -5 -341 -21 -668 -55 -57 -6 65 -8 363 -6 247 2
453 7 459 10 6 4 8 -1 5 -12 -3 -11 -10 -44 -17 -74 -6 -30 -18 -77 -25 -105
-8 -27 -19 -75 -25 -106 l-11 -56 -122 -8 c-181 -10 -661 -63 -597 -65 183 -5
647 5 681 15 24 8 24 -2 4 -115 -9 -47 -22 -120 -29 -162 -7 -43 -15 -80 -17
-83 -3 -2 -86 -11 -185 -20 -98 -9 -244 -22 -324 -31 -80 -8 -196 -18 -258
-21 -62 -3 -110 -9 -107 -11 7 -7 430 -4 578 4 62 3 150 6 196 7 l83 2 -6 -93
c-4 -52 -10 -100 -12 -107 -6 -15 -46 -14 -329 12 -229 21 -787 28 -985 14
-213 -16 -230 -19 -230 -41 0 -18 19 -19 543 -15 798 6 846 6 920 5 l67 0 0
-68 0 -67 -222 -24 c-330 -35 -428 -48 -388 -52 19 -1 44 -2 55 -2 214 9 479
11 499 4 17 -7 26 -7 30 2 3 7 4 -20 1 -59 -7 -79 -4 -83 58 -105 25 -9 37
-19 35 -29 -3 -13 -21 -15 -113 -12 -61 2 -166 7 -235 13 -276 21 -381 28
-510 33 -133 6 -544 -7 -674 -20 -61 -6 -67 -9 -64 -28 2 -12 10 -20 18 -18 8
2 84 3 170 3 85 0 281 1 435 1 455 2 685 0 765 -7 143 -12 155 -14 158 -23 2
-6 11 -8 22 -5 12 3 20 -1 23 -14 3 -13 5 -10 6 8 0 15 7 29 15 32 28 11 413
-55 545 -93 18 -5 36 -9 40 -8 10 2 46 -15 52 -25 11 -16 9 -126 -1 -132 -6
-3 -10 -14 -10 -24 0 -9 -6 -23 -13 -30 -6 -6 -12 -29 -13 -49 0 -20 -5 -55
-11 -77 -15 -57 -33 -158 -33 -182 0 -11 -6 -23 -14 -26 -14 -6 -15 -66 -2
-98 5 -10 1 -19 -8 -22 -8 -3 -13 -16 -11 -29 7 -60 18 -98 28 -98 7 0 7 -4
-1 -12 -16 -16 -15 -55 1 -61 7 -2 8 -8 3 -13 -5 -5 -11 -4 -13 4 -6 17 -23
15 -23 -3 0 -8 -4 -15 -10 -15 -5 0 -10 4 -10 9 0 15 -58 10 -64 -5 -4 -10 18
-13 94 -13 l99 0 7 35 c6 32 8 33 20 17 7 -10 14 -14 14 -9 0 4 11 1 25 -8 13
-9 33 -16 45 -16 11 0 20 -4 20 -10 0 -15 67 -12 73 3 4 9 6 9 6 0 1 -10 304
-13 1481 -13 890 0 1480 4 1480 9 0 5 -6 12 -12 14 -8 4 -9 6 -2 6 6 1 17 -6
24 -14 26 -31 61 -17 89 38 17 31 31 20 31 -25 0 -26 3 -28 39 -28 l40 0 11
57 c6 32 15 66 21 77 15 26 19 56 8 56 -5 0 -9 7 -9 15 0 8 5 15 10 15 6 0 10
5 10 11 0 6 -9 9 -20 6 -20 -5 -23 14 -7 41 5 7 3 12 -6 12 -8 0 -22 9 -32 20
-10 11 -13 20 -7 20 6 0 13 -6 15 -12 3 -8 6 -6 6 5 1 10 -6 20 -14 23 -8 4
-15 15 -15 25 0 10 -4 19 -9 19 -10 0 -48 93 -53 132 -2 12 -10 34 -18 48 -8
14 -13 28 -12 32 1 4 -5 34 -14 65 -9 32 -18 69 -21 83 -3 14 -10 30 -14 36
-5 6 -11 37 -13 68 -2 31 -9 63 -16 70 -6 8 -13 37 -15 64 -2 28 -9 61 -16 74
-7 13 -14 42 -17 65 -3 38 0 43 26 57 16 8 88 33 158 54 71 22 178 58 237 81
112 43 177 58 177 40 0 -6 -4 -7 -10 -4 -5 3 -10 1 -10 -5 0 -7 9 -14 20 -17
11 -3 18 -9 15 -13 -5 -9 13 -25 20 -18 2 1 -3 27 -11 57 -7 29 -11 57 -8 62
2 4 18 7 33 6 16 -1 27 -5 24 -9 -2 -5 0 -8 6 -8 5 0 12 4 16 9 3 5 18 10 33
10 15 0 60 4 101 9 70 10 118 10 401 -3 68 -4 121 -3 117 1 -4 4 -80 9 -170
11 -161 4 -516 35 -535 47 -6 3 -18 32 -27 64 -9 31 -21 65 -26 74 -13 26 -11
38 6 32 8 -4 12 -11 8 -18 -4 -6 1 -5 10 2 28 23 222 34 530 29 164 -2 300 -7
303 -10 3 -2 21 -1 40 3 18 4 34 5 34 1 0 -3 56 -5 125 -4 80 2 125 -1 125 -8
0 -6 5 -7 11 -3 12 7 181 10 195 3 5 -3 43 -2 84 1 41 4 68 8 60 9 -591 70
-993 78 -1525 28 -16 -2 -21 6 -26 43 -3 25 -9 63 -14 86 l-7 40 54 3 c29 1
77 3 106 3 28 1 52 5 52 8 0 3 46 5 103 4 120 -3 102 0 -138 22 -99 9 -187 20
-195 24 -8 5 -21 41 -30 83 -16 74 -16 75 4 75 12 0 46 4 76 8 65 8 470 9 553
1 32 -3 57 -1 57 4 0 13 37 11 46 -2 4 -8 9 -7 15 2 8 12 11 11 19 -1 6 -10
13 -11 18 -5 6 9 27 12 42 6 3 -1 118 -4 255 -6 138 -3 318 -6 400 -8 177 -4
175 -4 -115 27 -486 53 -770 56 -1175 11 -228 -25 -218 -25 -226 15 -4 19 -9
64 -13 100 l-6 65 77 -2 c43 -1 78 -2 78 -3 0 -7 436 -13 443 -5 3 3 -21 5
-53 5 -61 0 -409 26 -505 38 l-54 7 -18 65 c-22 83 -78 313 -78 321 0 4 18 3
40 -1 23 -4 89 -8 148 -9 59 -1 177 -3 262 -6 l155 -4 -155 13 c-85 7 -223 19
-307 27 l-151 13 -11 56 c-15 76 -79 204 -130 262 -41 46 -52 67 -28 51 6 -4
48 -9 92 -10 44 -2 130 -4 190 -7 61 -2 274 -6 475 -9 300 -4 322 -3 125 3
-132 4 -339 17 -460 28 -121 11 -280 24 -354 28 l-135 7 -40 39 c-27 26 -101
69 -221 127 -99 49 -216 108 -261 132 l-81 44 151 3 c254 5 669 6 919 3 131
-2 240 -1 242 1 3 2 -118 15 -268 29 -226 20 -326 24 -592 23 -176 -1 -369 -6
-430 -12 -128 -11 -141 -8 -267 64 -90 52 -165 102 -133 89 27 -12 461 -19
555 -9 72 7 64 9 -195 35 -148 15 -315 30 -369 34 -97 7 -100 8 -141 46 -23
22 -47 39 -53 39 -27 0 -17 15 11 17 50 2 189 14 227 18 19 3 69 4 110 4 181
-3 368 -1 405 5 58 9 597 14 830 7 110 -3 225 -3 255 0 30 3 48 6 40 7 -611
65 -897 67 -1555 12 -66 -5 -181 -10 -256 -10 l-137 0 -6 36 c-4 19 -10 43
-13 51 -4 11 -2 14 5 9 7 -4 15 -1 18 8 3 9 9 14 13 11 4 -2 23 4 42 14 54 29
117 35 379 36 135 1 313 6 395 10 l150 9 -130 12 c-71 7 -238 22 -370 33 -322
29 -333 30 -315 44 8 7 14 22 12 33 -3 18 1 21 21 17 14 -3 28 0 31 6 4 6 2
11 -3 11 -6 0 -11 7 -11 16 0 10 6 14 15 11 8 -4 17 -2 21 4 4 7 10 6 18 0 7
-6 16 -8 19 -5 5 6 50 6 287 3 47 -1 110 2 140 6 100 12 131 12 665 15 292 1
523 4 515 6 -8 2 -127 13 -265 26 -307 27 -699 28 -1000 4 -230 -19 -436 -29
-418 -20 7 3 9 12 6 21 -4 10 -2 14 4 10 6 -4 9 2 6 16 -4 25 61 124 71 108 6
-8 33 -8 83 0 4 1 13 0 18 -1 15 -3 208 -1 225 3 8 1 20 6 27 10 6 4 17 5 25
2 7 -3 26 -1 42 3 20 5 -24 13 -155 25 -101 10 -206 21 -232 24 l-49 6 7 46
c11 74 14 76 154 79 69 1 139 6 155 10 26 7 1083 8 1126 1 8 -1 47 -1 85 1 66
2 63 3 -60 16 -291 29 -401 36 -645 36 -217 1 -576 -17 -752 -37 -45 -5 -48
-4 -48 18 0 13 13 36 29 51 16 16 39 51 51 79 12 27 25 46 28 41 4 -5 81 -10
172 -10 l165 -2 -170 18 c-93 10 -171 19 -172 19 -2 1 -3 32 -3 71 0 77 -24
144 -79 220 -32 45 -40 72 -18 65 6 -2 111 -5 232 -8 121 -2 204 -2 185 0
-450 43 -459 44 -460 83 0 8 -3 32 -6 52 l-7 37 254 1 c140 1 483 2 763 2 279
0 504 3 500 8 -13 11 -217 28 -499 41 -261 13 -452 6 -790 -27 -194 -18 -234
-18 -241 1 -9 22 28 107 49 113 9 2 17 10 17 17 0 8 7 20 14 28 12 12 55 14
243 12 125 -1 210 0 188 2 -22 1 -130 10 -240 19 -110 9 -210 20 -221 25 -16
5 -24 20 -29 48 -4 24 -12 41 -20 41 -7 0 -15 7 -19 15 -11 31 25 14 45 -20
26 -43 30 -44 18 -3 -5 18 -9 34 -9 35 0 1 -10 11 -21 22 -17 15 -27 18 -46
10 -31 -12 -36 -11 -28 1 3 6 1 10 -5 10 -6 0 -8 5 -5 10 3 6 1 10 -4 10 -6 0
-11 -7 -11 -15 0 -8 -4 -15 -10 -15 -5 0 -7 6 -4 14 4 11 0 13 -18 10 -20 -5
-21 -4 -5 6 9 6 17 15 17 21 0 5 -9 4 -20 -3 -17 -11 -22 -10 -30 2 -5 8 -7
23 -4 33 3 11 0 17 -10 17 -18 0 -47 40 -39 53 3 6 1 7 -5 3 -6 -3 -13 -2 -17
4 -3 5 -3 11 2 11 59 8 64 8 53 -7 -7 -8 -8 -14 -2 -14 5 0 15 7 22 15 17 20
26 12 24 -22 0 -15 4 -31 9 -35 7 -4 4 -16 -7 -35 -17 -27 -17 -27 1 -6 10 12
26 33 36 45 17 23 17 22 2 -9 -18 -37 -19 -47 -5 -38 6 3 7 -1 4 -9 -4 -9 -1
-16 6 -16 7 0 10 8 7 20 -3 12 1 33 9 48 8 15 14 36 14 48 0 20 4 21 140 20
76 -1 136 2 132 6 -10 9 -258 28 -372 28 -82 0 -99 3 -114 19 -9 10 -25 17
-34 14 -20 -5 -43 45 -35 76 3 10 0 22 -6 25 -6 4 -11 0 -11 -8 0 -9 -8 -16
-17 -17 -15 0 -15 -2 2 -9 18 -8 17 -9 -7 -9 -20 -1 -27 4 -30 22 -2 15 -12
24 -33 28 -68 13 -146 59 -99 59 8 0 12 5 9 11 -5 7 -14 4 -27 -8 -25 -22 -24
-22 -40 -1 -8 11 -32 20 -63 24 -27 3 -54 10 -59 15 -13 12 -17 11 -45 -10z
m674 -281 c9 -15 -16 -43 -27 -32 -10 10 0 42 12 42 5 0 12 -5 15 -10z m-602
-33 c4 3 12 1 19 -4 7 -6 37 -16 67 -23 78 -18 163 -79 153 -109 -3 -10 0 -12
11 -8 9 3 27 -3 42 -14 14 -12 31 -22 38 -23 15 -3 92 -79 89 -88 -1 -5 3 -8
8 -8 6 0 24 -10 40 -22 16 -12 32 -19 35 -16 6 6 41 -25 85 -76 l25 -28 -42 7
c-25 4 -50 2 -62 -4 -31 -17 -69 -57 -77 -83 -8 -26 -28 -48 -43 -48 -6 0 -11
-4 -11 -10 0 -5 -11 -9 -25 -8 -16 2 -24 7 -21 15 3 7 1 15 -5 18 -5 4 -16 22
-24 42 -11 26 -19 34 -31 29 -9 -4 -23 -1 -32 6 -19 16 -125 16 -144 0 -8 -6
-17 -9 -20 -6 -3 3 -19 -13 -34 -35 -16 -22 -34 -41 -40 -41 -15 0 -72 -29
-61 -31 4 -1 11 -2 16 -3 26 -3 20 -16 -8 -16 -22 0 -31 -4 -29 -12 5 -14 -33
-48 -54 -48 -21 0 -72 -49 -73 -71 -1 -12 -7 -24 -14 -28 -8 -5 4 -10 30 -14
33 -4 53 0 92 19 27 14 55 23 63 20 7 -3 16 3 19 13 3 9 23 28 45 40 l40 22 0
-31 c0 -17 5 -40 11 -52 9 -17 8 -19 -9 -14 -11 4 -23 2 -27 -4 -3 -5 3 -10
14 -10 11 0 22 -4 25 -9 8 -12 -18 -21 -61 -21 -29 0 -73 -24 -62 -34 2 -2 45
-8 94 -14 116 -13 140 -4 141 53 1 63 3 68 20 61 20 -8 64 3 64 16 0 6 13 29
28 52 15 22 31 49 35 59 3 9 14 17 23 17 13 0 14 -3 4 -15 -10 -12 -10 -15 3
-15 9 0 17 -14 22 -37 7 -39 31 -93 41 -93 4 0 4 7 0 15 -8 21 0 19 25 -6 11
-11 18 -24 14 -27 -3 -4 -10 0 -14 7 -6 9 -11 10 -15 3 -7 -12 46 -77 77 -93
14 -8 18 -8 12 0 -6 11 12 10 60 -3 6 -2 24 5 40 14 22 12 30 24 30 45 0 16 6
30 13 32 6 3 12 12 13 21 0 10 6 -5 13 -33 7 -27 21 -68 31 -90 14 -31 19 -71
21 -180 2 -77 1 -132 -2 -122 -3 9 -15 17 -27 17 -21 -1 -21 -1 -4 -14 22 -17
14 -23 -33 -27 -50 -4 -80 8 -73 29 5 13 3 14 -6 6 -10 -9 -10 -17 -2 -32 12
-23 5 -32 -23 -31 -16 0 -17 2 -6 7 8 4 16 23 18 42 8 96 7 115 -5 113 -7 -2
-57 -5 -110 -9 -81 -4 -108 -10 -154 -33 -37 -19 -66 -27 -83 -24 -18 4 -26 1
-26 -9 0 -27 54 -65 110 -79 30 -7 62 -19 70 -27 13 -13 13 -14 -2 -9 -10 4
-18 3 -18 -2 0 -13 64 -20 71 -9 4 6 9 6 14 -1 3 -7 14 -9 24 -6 9 3 25 -1 36
-9 17 -12 14 -14 -28 -20 -26 -4 -56 -5 -66 -1 -11 3 -47 -3 -80 -15 -73 -24
-99 -26 -82 -6 9 10 8 16 -4 26 -11 9 -15 9 -15 1 0 -7 -4 -9 -10 -6 -5 3 -10
-2 -10 -11 0 -15 -3 -14 -19 4 -10 12 -25 22 -34 22 -21 0 -28 25 -21 71 6 33
4 39 -11 39 -10 0 -15 -5 -12 -13 3 -8 -5 -22 -18 -31 -13 -10 -21 -24 -19
-31 4 -9 0 -12 -14 -8 -12 3 -22 -1 -26 -12 -5 -13 -1 -15 17 -10 21 5 21 5 3
-7 -11 -7 -27 -21 -37 -30 -10 -10 -30 -20 -44 -24 -30 -8 -32 -20 -4 -27 12
-3 18 -10 14 -16 -3 -6 -1 -11 4 -11 6 0 11 -4 11 -10 0 -13 -56 -13 -81 1
-11 6 -34 7 -50 4 -28 -6 -29 -8 -12 -22 17 -13 16 -14 -8 -9 -17 4 -35 -1
-50 -13 -13 -10 -41 -21 -61 -24 -35 -5 -38 -4 -38 18 0 18 -4 23 -15 19 -10
-4 -15 0 -15 16 0 17 -4 20 -20 15 -14 -5 -20 -2 -20 9 0 9 -4 16 -9 16 -5 0
-11 12 -13 28 -2 18 -8 27 -20 26 -10 -1 -15 2 -12 7 3 5 1 24 -4 43 -7 24 -6
38 2 46 8 8 7 14 -4 23 -9 7 -14 20 -12 30 2 9 -2 17 -8 17 -6 0 -9 4 -6 9 4
5 1 22 -4 37 -15 38 -21 126 -10 119 12 -7 1 55 -12 72 -6 8 -6 17 1 25 27 32
58 87 65 114 4 17 3 24 -2 16 -13 -19 -31 6 -27 38 1 14 3 31 4 38 0 6 7 12
15 12 9 0 16 17 21 50 4 28 16 61 27 73 21 23 52 101 37 91 -5 -3 -9 2 -9 11
0 10 -5 13 -12 9 -10 -6 -10 -5 0 8 10 12 10 22 -2 48 -11 28 -11 38 0 66 10
24 11 33 2 36 -6 2 6 17 28 33 41 31 116 106 149 150 30 40 36 44 90 69 30 14
54 20 61 15 6 -5 14 -6 17 -2z m-1203 -518 c0 -3 16 -5 35 -3 34 2 46 -8 24
-21 -6 -4 -8 -13 -5 -21 3 -7 0 -16 -6 -20 -7 -5 -8 -2 -3 6 5 9 4 11 -4 6 -6
-4 -9 -12 -6 -17 4 -5 3 -15 -2 -21 -4 -7 -8 -19 -9 -26 -2 -8 -10 -22 -19
-32 -10 -11 -14 -26 -11 -38 6 -17 1 -19 -36 -18 -37 1 -43 4 -46 24 -4 23 15
31 24 9 8 -21 44 -18 44 4 0 15 -7 19 -38 19 -53 0 -66 16 -39 46 12 14 28 24
37 23 27 -2 43 1 37 8 -4 3 1 12 11 20 15 13 13 14 -20 9 -21 -2 -38 -1 -38 5
0 5 -7 9 -15 9 -8 0 -15 5 -15 10 0 16 30 24 43 11 15 -15 28 -14 21 2 -3 8 3
13 16 13 11 0 20 -3 20 -7z m-116 -21 c-3 -5 -12 -7 -20 -4 -7 3 -16 1 -19 -4
-4 -6 -11 -10 -17 -10 -6 0 -3 9 6 19 17 19 62 18 50 -1z m346 3 c0 -6 -4 -13
-10 -16 -5 -3 -10 1 -10 9 0 9 5 16 10 16 6 0 10 -4 10 -9z m-320 -51 c0 -5
-9 -10 -21 -10 -11 0 -17 5 -14 10 3 6 13 10 21 10 8 0 14 -4 14 -10z m1321
-46 c-29 -14 -56 -22 -59 -20 -6 7 78 46 98 45 8 0 -9 -12 -39 -25z m479 11
c-7 -8 -18 -15 -24 -15 -6 0 -2 7 8 15 25 19 32 19 16 0z m65 -25 c3 -5 2 -10
-4 -10 -7 0 -7 -8 -1 -26 12 -32 8 -40 -27 -49 -15 -3 -31 -12 -35 -18 -9 -15
-14 -9 -21 30 -5 23 -1 38 14 57 21 26 62 35 74 16z m-1399 -73 c39 -60 66
-108 63 -111 -2 -2 -25 30 -51 70 -26 41 -44 74 -40 74 4 0 16 -15 28 -33z
m400 -43 c-3 -9 -6 -18 -6 -20 0 -2 -4 -4 -9 -4 -5 0 -7 9 -4 20 3 11 10 20
15 20 6 0 7 -7 4 -16z m-516 -5 c0 -4 -9 -11 -20 -14 -11 -3 -20 -14 -20 -22
0 -26 49 -103 66 -103 8 0 18 -8 21 -17 4 -10 12 -22 20 -26 7 -4 13 -15 13
-24 0 -12 -3 -13 -15 -3 -8 6 -19 9 -25 5 -5 -3 -10 -2 -10 2 0 5 -18 37 -40
71 -37 57 -52 116 -34 135 8 8 44 4 44 -4z m-340 -18 c0 -5 -9 -7 -20 -4 -11
3 -20 7 -20 9 0 2 9 4 20 4 11 0 20 -4 20 -9z m-8 -176 c3 -13 1 -22 -3 -19
-9 5 -13 44 -5 44 2 0 6 -11 8 -25z m78 -65 c0 -5 -10 -10 -22 -9 -22 0 -22 1
-3 9 11 5 21 9 23 9 1 1 2 -3 2 -9z m-10 -110 c0 -5 -4 -10 -10 -10 -5 0 -10
5 -10 10 0 6 5 10 10 10 6 0 10 -4 10 -10z m782 -82 c-7 -7 -12 -8 -12 -2 0 6
3 14 7 17 3 4 9 5 12 2 2 -3 -1 -11 -7 -17z m1053 -8 c3 -5 -1 -10 -9 -10 -8
0 -18 5 -21 10 -3 6 1 10 9 10 8 0 18 -4 21 -10z m-528 -85 c0 -8 -4 -12 -9
-9 -4 3 -8 9 -8 15 0 5 4 9 8 9 5 0 9 -7 9 -15z m461 -97 c2 -12 -7 -19 -30
-26 -34 -9 -52 -9 -153 2 -155 18 -148 34 15 39 162 5 164 4 168 -15z m-688
-18 c0 -5 -2 -10 -4 -10 -3 0 -8 5 -11 10 -3 6 -1 10 4 10 6 0 11 -4 11 -10z
m345 -33 c-6 -21 0 -27 53 -50 91 -39 90 -47 -10 -61 -21 -2 -38 -1 -38 5 0 5
-7 9 -15 9 -8 0 -15 5 -15 10 0 6 -3 9 -7 8 -14 -5 -50 26 -57 49 -6 19 -2 22
34 28 22 4 40 11 40 16 0 5 5 9 10 9 6 0 8 -10 5 -23z m65 8 c0 -8 -2 -15 -4
-15 -2 0 -6 7 -10 15 -3 8 -1 15 4 15 6 0 10 -7 10 -15z m-1376 -76 c-4 -6
-11 -6 -20 2 -21 17 -17 31 6 19 11 -6 18 -15 14 -21z m1359 -165 c-7 -19 -10
-18 -16 5 -3 13 -1 18 9 14 7 -2 10 -11 7 -19z m55 4 c-5 -13 -38 -20 -38 -8
0 5 8 11 18 13 9 3 19 5 20 6 2 0 2 -4 0 -11z m-982 -90 c-3 -13 -6 -31 -6
-40 0 -14 -9 -18 -41 -18 l-41 0 31 32 c17 17 31 35 31 40 0 4 7 8 16 8 12 0
15 -6 10 -22z m42 -36 c3 -17 -2 -22 -17 -22 -14 0 -21 6 -21 18 0 38 33 41
38 4z m42 -10 c0 -5 -7 -9 -15 -9 -8 0 -15 4 -15 9 0 4 7 8 15 8 8 0 15 -4 15
-8z m1130 -343 c0 -5 -4 -9 -10 -9 -5 0 -10 7 -10 16 0 8 5 12 10 9 6 -3 10
-10 10 -16z m-10 -26 c-1 -5 -7 -19 -15 -33 l-15 -25 4 30 c5 38 4 35 16 35 6
0 10 -3 10 -7z m-790 -87 c0 -11 -19 -15 -25 -6 -3 5 1 10 9 10 9 0 16 -2 16
-4z m37 -52 c-3 -3 -12 -4 -19 -1 -8 3 -5 6 6 6 11 1 17 -2 13 -5z m-52 -64
c3 -6 -1 -7 -9 -4 -18 7 -21 14 -7 14 6 0 13 -4 16 -10z m-1105 -2860 c0 -5 6
-7 14 -4 7 3 16 -3 19 -13 2 -10 8 -26 12 -35 5 -13 -1 -18 -30 -24 -20 -3
-38 -4 -41 -2 -8 8 8 88 17 88 5 0 9 -4 9 -10z m-41 -261 c-6 -3 1 -9 15 -11
14 -3 23 -1 20 3 -3 5 -1 9 5 9 5 0 13 -5 16 -11 4 -6 13 -8 20 -5 7 2 18 -1
25 -7 10 -9 14 -9 17 1 3 6 11 12 19 12 9 0 12 -4 9 -10 -3 -5 3 -10 14 -10
11 0 22 8 24 18 3 10 5 6 6 -11 l1 -28 -62 6 c-157 15 -159 16 -142 60 5 13 9
14 15 4 4 -8 3 -16 -2 -20z m-13 -203 c16 -11 24 -12 24 -5 0 8 14 10 45 6 30
-5 45 -3 45 4 0 8 4 8 14 0 11 -9 15 -9 19 1 3 7 6 4 6 -7 0 -11 -3 -25 -7
-32 -6 -10 -191 -37 -199 -29 -2 2 2 27 9 57 7 30 14 46 16 37 2 -9 14 -24 28
-32z m3174 -16 c0 -3 -9 -6 -20 -6 -23 0 -25 7 -8 24 9 9 14 9 20 -1 4 -6 8
-14 8 -17z"/>
<path d="M3743 5213 c9 -2 25 -2 35 0 9 3 1 5 -18 5 -19 0 -27 -2 -17 -5z"/>
<path d="M4436 5191 c-3 -5 1 -11 9 -14 9 -4 12 -1 8 9 -6 16 -10 17 -17 5z"/>
<path d="M4440 5030 c0 -5 5 -10 10 -10 6 0 10 5 10 10 0 6 -4 10 -10 10 -5 0
-10 -4 -10 -10z"/>
<path d="M4430 4800 c0 -5 7 -10 16 -10 8 0 12 5 9 10 -3 6 -10 10 -16 10 -5
0 -9 -4 -9 -10z"/>
<path d="M4075 4721 c-3 -5 -2 -16 1 -25 7 -19 44 -22 44 -3 0 16 -37 39 -45
28z"/>
<path d="M310 6229 c-129 -9 -253 -18 -274 -18 -61 -1 -35 -12 41 -18 82 -5
1474 -6 1479 0 4 4 -102 15 -396 42 -204 20 -556 17 -850 -6z"/>
<path d="M4965 6218 c-60 -4 -171 -14 -245 -22 l-135 -13 165 -3 c148 -2 779
-1 1190 2 l155 1 -260 23 c-277 24 -653 30 -870 12z"/>
<path d="M7260 6223 c-25 -2 -152 -12 -282 -23 -130 -11 -267 -21 -305 -22
-53 -2 -44 -3 42 -7 61 -4 112 -3 115 0 3 4 28 5 55 3 43 -2 87 -3 215 -2 14
0 97 -3 185 -6 115 -4 161 -2 166 6 6 9 11 9 22 0 18 -15 27 -6 27 30 l0 28
-97 -2 c-54 -1 -118 -3 -143 -5z"/>
<path d="M1678 6183 c7 -3 16 -2 19 1 4 3 -2 6 -13 5 -11 0 -14 -3 -6 -6z"/>
<path d="M4473 6173 c20 -2 54 -2 75 0 20 2 3 4 -38 4 -41 0 -58 -2 -37 -4z"/>
<path d="M6183 6173 c9 -2 23 -2 30 0 6 3 -1 5 -18 5 -16 0 -22 -2 -12 -5z"/>
<path d="M4130 6129 c0 -5 5 -7 10 -4 6 3 10 8 10 11 0 2 -4 4 -10 4 -5 0 -10
-5 -10 -11z"/>
<path d="M0 6038 c0 -15 5 -19 20 -15 11 3 35 1 55 -3 19 -4 38 -4 40 1 3 4
43 6 88 4 l82 -4 -105 14 c-194 26 -180 25 -180 3z"/>
<path d="M1540 6044 c-356 -29 -342 -31 215 -33 297 -1 579 -3 628 -4 48 -2
87 0 87 3 0 4 -48 12 -107 19 -298 34 -540 38 -823 15z"/>
<path d="M6200 6045 c-8 -2 -88 -9 -178 -16 -90 -7 -164 -15 -166 -18 -2 -3
187 -7 421 -9 234 -1 430 -5 436 -9 5 -3 7 -2 4 4 -4 7 49 9 156 7 192 -3 154
7 -115 31 -150 13 -511 19 -558 10z"/>
<path d="M2513 6003 c9 -2 25 -2 35 0 9 3 1 5 -18 5 -19 0 -27 -2 -17 -5z"/>
<path d="M4718 6003 c12 -2 30 -2 40 0 9 3 -1 5 -23 4 -22 0 -30 -2 -17 -4z"/>
<path d="M5488 5983 c7 -3 16 -2 19 1 4 3 -2 6 -13 5 -11 0 -14 -3 -6 -6z"/>
<path d="M251 5869 c-134 -11 -247 -21 -249 -24 -3 -3 -2 -8 1 -12 4 -3 346
-7 759 -9 460 -1 741 1 723 7 -45 13 -268 37 -455 49 -234 14 -496 10 -779
-11z"/>
<path d="M4965 5863 c-27 -2 -135 -12 -240 -22 l-190 -19 260 -1 c325 -2 316
-2 810 0 408 2 429 5 175 29 -126 12 -722 21 -815 13z"/>
<path d="M7240 5865 c-8 -2 -121 -11 -250 -20 -129 -10 -253 -20 -275 -24 -22
-4 146 -8 373 -8 l412 -1 0 29 0 29 -122 -1 c-68 -1 -130 -3 -138 -4z"/>
<path d="M4508 5813 c7 -3 16 -2 19 1 4 3 -2 6 -13 5 -11 0 -14 -3 -6 -6z"/>
<path d="M6638 5813 c6 -2 18 -2 25 0 6 3 1 5 -13 5 -14 0 -19 -2 -12 -5z"/>
<path d="M2740 5754 c0 -8 5 -12 10 -9 6 4 8 11 5 16 -9 14 -15 11 -15 -7z"/>
<path d="M0 5666 l0 -23 303 0 c257 0 281 1 162 7 -78 5 -202 15 -277 24 -184
21 -188 21 -188 -8z"/>
<path d="M6265 5684 c-196 -8 -441 -32 -431 -41 3 -3 110 -7 238 -9 128 -3
244 -5 258 -5 14 0 169 0 344 0 176 0 330 -2 343 -5 15 -4 23 -2 23 7 0 10 3
10 12 1 13 -13 48 -16 48 -4 0 4 21 6 47 5 148 -7 200 -8 190 -1 -7 4 -39 8
-72 8 -33 0 -159 9 -280 20 -212 20 -553 31 -720 24z"/>
<path d="M5743 5633 c9 -2 23 -2 30 0 6 3 -1 5 -18 5 -16 0 -22 -2 -12 -5z"/>
<path d="M420 5504 c-288 -22 -413 -34 -418 -38 -3 -4 -2 -9 2 -13 6 -6 1371
-8 1476 -3 31 2 30 3 -15 11 -184 30 -849 58 -1045 43z"/>
<path d="M7325 5493 c-38 -2 -168 -12 -288 -23 -119 -11 -246 -20 -281 -20
-36 0 -67 -4 -70 -9 -6 -9 570 -8 580 1 3 4 18 3 32 0 15 -4 54 -7 87 -6 118
2 115 1 115 34 0 34 16 31 -175 23z"/>
<path d="M6008 5443 c6 -2 18 -2 25 0 6 3 1 5 -13 5 -14 0 -19 -2 -12 -5z"/>
<path d="M6648 5433 c7 -3 16 -2 19 1 4 3 -2 6 -13 5 -11 0 -14 -3 -6 -6z"/>
<path d="M0 5296 l0 -26 223 1 c122 1 209 4 192 6 -16 2 -104 10 -195 19 -91
8 -177 17 -192 20 -25 5 -28 3 -28 -20z"/>
<path d="M5970 5299 c-102 -11 -228 -23 -280 -27 -52 -4 252 -7 677 -7 424 0
774 3 777 6 3 3 -74 14 -171 24 -269 28 -760 30 -1003 4z"/>
<path d="M663 5263 c26 -2 68 -2 95 0 26 2 4 3 -48 3 -52 0 -74 -1 -47 -3z"/>
<path d="M908 5263 c6 -2 18 -2 25 0 6 3 1 5 -13 5 -14 0 -19 -2 -12 -5z"/>
<path d="M7183 5263 c15 -2 39 -2 55 0 15 2 2 4 -28 4 -30 0 -43 -2 -27 -4z"/>
<path d="M455 5134 c-27 -2 -133 -11 -233 -19 -101 -8 -192 -15 -203 -15 -10
0 -19 -6 -19 -14 0 -11 132 -13 813 -12 446 0 803 2 792 3 -240 30 -600 55
-830 58 -148 1 -292 1 -320 -1z"/>
<path d="M5030 5124 c-111 -7 -404 -35 -409 -40 -2 -2 2 -4 10 -4 8 0 358 -1
779 -2 421 -2 747 -2 725 0 -22 2 -137 12 -255 23 -205 20 -684 32 -850 23z"/>
<path d="M7345 5123 c-38 -2 -176 -12 -305 -23 -129 -11 -257 -21 -285 -22
-45 -1 -43 -2 20 -7 70 -7 542 -4 645 3 30 2 61 5 68 5 6 1 12 12 12 26 0 23
-3 25 -42 23 -24 -1 -74 -3 -113 -5z"/>
<path d="M6243 5063 c15 -2 37 -2 50 0 12 2 0 4 -28 4 -27 0 -38 -2 -22 -4z"/>
<path d="M6383 5063 c26 -2 68 -2 95 0 26 2 4 3 -48 3 -52 0 -74 -1 -47 -3z"/>
<path d="M6230 4933 c-83 -5 -563 -44 -580 -47 -8 -2 73 -2 180 -1 125 2 200
-1 208 -8 9 -7 19 -7 35 1 15 7 113 10 307 8 157 -2 285 -5 285 -6 0 -5 61 -6
70 -2 9 6 188 5 455 -2 169 -4 157 -2 -110 24 -399 37 -621 46 -850 33z"/>
<path d="M0 4907 l0 -23 253 0 c138 1 232 2 207 3 -91 5 -416 34 -437 39 -19
3 -23 0 -23 -19z"/>
<path d="M5498 4873 c6 -2 18 -2 25 0 6 3 1 5 -13 5 -14 0 -19 -2 -12 -5z"/>
<path d="M7353 4873 c15 -2 37 -2 50 0 12 2 0 4 -28 4 -27 0 -38 -2 -22 -4z"/>
<path d="M415 4744 c-22 -2 -110 -8 -195 -14 -184 -13 -220 -18 -220 -34 0
-10 599 -13 1301 -6 75 0 183 -1 240 -4 146 -7 96 0 -221 30 -258 24 -776 40
-905 28z"/>
<path d="M7325 4733 c-22 -1 -157 -12 -300 -23 -143 -11 -280 -22 -305 -24
-25 -2 17 -3 93 -2 75 1 137 -1 137 -5 0 -4 33 -4 73 -1 39 3 163 6 275 6
l202 1 0 28 c0 27 0 27 -67 25 -38 -1 -86 -3 -108 -5z"/>
<path d="M6148 4683 c12 -2 32 -2 45 0 12 2 2 4 -23 4 -25 0 -35 -2 -22 -4z"/>
<path d="M6228 4683 c7 -3 16 -2 19 1 4 3 -2 6 -13 5 -11 0 -14 -3 -6 -6z"/>
<path d="M6503 4673 c9 -2 25 -2 35 0 9 3 1 5 -18 5 -19 0 -27 -2 -17 -5z"/>
<path d="M6200 4545 c-8 -2 -88 -9 -178 -16 -89 -7 -160 -14 -157 -17 2 -2
280 -6 616 -8 354 -2 608 0 603 6 -18 17 -376 40 -622 39 -136 -1 -254 -3
-262 -4z"/>
<path d="M0 4522 c0 -19 7 -20 150 -20 82 -1 150 1 150 2 0 2 -51 9 -112 15
-62 6 -130 14 -150 17 -33 5 -38 3 -38 -14z"/>
<path d="M7123 4503 c15 -2 37 -2 50 0 12 2 0 4 -28 4 -27 0 -38 -2 -22 -4z"/>
<path d="M983 4493 c9 -2 25 -2 35 0 9 3 1 5 -18 5 -19 0 -27 -2 -17 -5z"/>
<path d="M5013 4493 c9 -2 25 -2 35 0 9 3 1 5 -18 5 -19 0 -27 -2 -17 -5z"/>
<path d="M7228 4493 c12 -2 30 -2 40 0 9 3 -1 5 -23 4 -22 0 -30 -2 -17 -4z"/>
<path d="M470 4363 c-36 -2 -148 -10 -248 -18 -101 -8 -192 -15 -203 -15 -10
0 -19 -5 -19 -11 0 -18 33 -39 46 -28 6 4 336 11 738 13 401 3 730 7 732 9 4
3 -309 31 -531 47 -122 9 -367 10 -515 3z"/>
<path d="M7395 4354 c-11 -1 -155 -13 -320 -26 -203 -16 -282 -25 -245 -28 30
-3 87 -2 125 1 48 5 72 3 77 -5 4 -6 8 -7 8 -1 0 6 82 10 228 10 l227 1 3 27
c3 26 1 27 -40 26 -24 -1 -52 -3 -63 -5z"/>
<path d="M1588 4303 c17 -2 47 -2 65 0 17 2 3 4 -33 4 -36 0 -50 -2 -32 -4z"/>
<path d="M6188 4303 c12 -2 30 -2 40 0 9 3 -1 5 -23 4 -22 0 -30 -2 -17 -4z"/>
<path d="M6628 4293 c17 -2 47 -2 65 0 17 2 3 4 -33 4 -36 0 -50 -2 -32 -4z"/>
<path d="M6738 4293 c7 -3 16 -2 19 1 4 3 -2 6 -13 5 -11 0 -14 -3 -6 -6z"/>
<path d="M6345 4164 c-77 -4 -389 -28 -545 -44 -43 -4 72 -7 273 -6 191 1 347
-2 347 -5 0 -6 881 -1 887 4 1 2 -118 13 -265 25 -269 22 -549 32 -697 26z"/>
<path d="M0 4131 c0 -19 6 -21 63 -21 35 0 68 -5 75 -12 8 -8 15 -8 25 1 9 7
44 11 91 9 42 -1 78 1 81 4 3 3 -48 10 -112 17 -65 6 -142 14 -170 17 -49 6
-53 5 -53 -15z"/>
<path d="M418 4103 c7 -3 16 -2 19 1 4 3 -2 6 -13 5 -11 0 -14 -3 -6 -6z"/>
<path d="M948 4103 c7 -3 16 -2 19 1 4 3 -2 6 -13 5 -11 0 -14 -3 -6 -6z"/>
<path d="M998 4103 c7 -3 16 -2 19 1 4 3 -2 6 -13 5 -11 0 -14 -3 -6 -6z"/>
<path d="M5218 4103 c7 -3 16 -2 19 1 4 3 -2 6 -13 5 -11 0 -14 -3 -6 -6z"/>
<path d="M5683 4103 c9 -2 23 -2 30 0 6 3 -1 5 -18 5 -16 0 -22 -2 -12 -5z"/>
<path d="M7353 4103 c15 -2 37 -2 50 0 12 2 0 4 -28 4 -27 0 -38 -2 -22 -4z"/>
<path d="M365 3960 c-174 -12 -358 -30 -364 -35 -2 -3 -2 -7 0 -9 3 -3 380 -6
839 -8 459 -2 790 0 735 4 -55 5 -203 17 -330 29 -259 23 -681 32 -880 19z"/>
<path d="M7350 3954 c-14 -2 -115 -10 -225 -19 -110 -9 -243 -20 -295 -24 -55
-5 46 -6 245 -3 187 2 359 4 383 3 39 -2 42 0 42 24 0 24 -2 25 -62 24 -35 -1
-74 -3 -88 -5z"/>
<path d="M1693 3903 c9 -2 23 -2 30 0 6 3 -1 5 -18 5 -16 0 -22 -2 -12 -5z"/>
<path d="M3200 3800 c0 -5 5 -10 10 -10 6 0 10 5 10 10 0 6 -4 10 -10 10 -5 0
-10 -4 -10 -10z"/>
<path d="M6160 3759 c-389 -36 -390 -35 35 -37 215 -1 453 -2 530 -2 77 0 149
0 160 0 196 -1 338 0 341 3 2 2 -98 14 -223 26 -242 23 -645 28 -843 10z"/>
<path d="M0 3734 c0 -17 7 -19 52 -16 29 2 73 -1 97 -7 43 -9 75 -6 66 9 -2 4
-39 10 -81 14 -42 4 -90 10 -106 13 -23 4 -28 2 -28 -13z"/>
<path d="M278 3713 c7 -3 16 -2 19 1 4 3 -2 6 -13 5 -11 0 -14 -3 -6 -6z"/>
<path d="M963 3703 c9 -2 23 -2 30 0 6 3 -1 5 -18 5 -16 0 -22 -2 -12 -5z"/>
<path d="M495 3574 c-119 -4 -399 -23 -452 -30 -28 -4 -43 -11 -43 -20 0 -12
69 -14 438 -14 240 0 606 -1 814 -2 207 -2 374 0 371 5 -2 4 -32 7 -66 7 -34
1 -107 5 -162 10 -378 35 -696 51 -900 44z"/>
<path d="M7345 3563 c-22 -1 -116 -10 -210 -19 -93 -8 -233 -19 -310 -23 -99
-6 -34 -7 220 -5 198 2 381 4 408 4 44 0 47 2 47 25 0 24 -2 25 -57 23 -32 -1
-76 -3 -98 -5z"/>
<path d="M6248 3513 c34 -2 90 -2 125 0 34 2 6 3 -63 3 -69 0 -97 -1 -62 -3z"/>
<path d="M1698 3503 c7 -3 16 -2 19 1 4 3 -2 6 -13 5 -11 0 -14 -3 -6 -6z"/>
<path d="M1848 3503 c17 -2 47 -2 65 0 17 2 3 4 -33 4 -36 0 -50 -2 -32 -4z"/>
<path d="M6608 3503 c12 -2 30 -2 40 0 9 3 -1 5 -23 4 -22 0 -30 -2 -17 -4z"/>
<path d="M6320 3370 c-150 -9 -499 -39 -515 -45 -5 -2 112 -4 260 -4 149 -1
478 -3 733 -5 255 -2 475 0 490 4 l27 8 -25 1 c-14 1 -126 10 -250 20 -277 24
-542 31 -720 21z"/>
<path d="M0 3331 c0 -20 5 -21 170 -21 94 0 170 2 170 4 0 1 -69 8 -152 15
-84 7 -161 14 -170 17 -13 4 -18 0 -18 -15z"/>
<path d="M5718 3313 c7 -3 16 -2 19 1 4 3 -2 6 -13 5 -11 0 -14 -3 -6 -6z"/>
<path d="M7347 3313 c18 -2 50 -2 70 0 21 2 7 4 -32 4 -38 0 -55 -2 -38 -4z"/>
<path d="M320 3159 c-286 -19 -314 -23 -318 -41 -3 -17 37 -18 711 -18 393 1
719 0 723 -1 5 -1 50 0 99 1 72 2 24 8 -235 31 -363 31 -766 43 -980 28z"/>
<path d="M7320 3154 c-42 -5 -418 -35 -545 -43 -90 -6 -58 -7 130 -4 138 2
328 4 423 4 l172 1 0 24 c0 23 -2 24 -77 23 -43 -1 -89 -3 -103 -5z"/>
<path d="M6350 2973 c-190 -14 -406 -35 -412 -41 -4 -4 208 -8 470 -9 262 -1
537 -4 609 -7 77 -3 135 -1 138 5 4 5 12 9 18 9 7 0 6 -4 -3 -11 -11 -8 -7 -9
19 -5 18 3 52 6 75 7 60 2 -234 35 -419 48 -145 10 -386 12 -495 4z"/>
<path d="M0 2927 c0 -12 23 -15 123 -15 109 0 115 1 57 9 -165 20 -180 21
-180 6z"/>
<path d="M5858 2923 c12 -2 32 -2 45 0 12 2 2 4 -23 4 -25 0 -35 -2 -22 -4z"/>
<path d="M7343 2913 c9 -2 25 -2 35 0 9 3 1 5 -18 5 -19 0 -27 -2 -17 -5z"/>
<path d="M345 2764 c-11 -1 -93 -8 -183 -15 -141 -10 -162 -14 -162 -29 0 -16
50 -17 777 -16 428 0 771 2 763 3 -34 5 -445 43 -569 53 -120 9 -574 12 -626
4z"/>
<path d="M7170 2744 c-80 -7 -185 -17 -235 -23 l-90 -10 100 3 c63 2 93 0 80
-5 -13 -6 -7 -7 20 -3 22 3 121 7 220 9 249 3 235 2 235 25 0 19 -6 20 -92 19
-51 -1 -158 -8 -238 -15z"/>
<path d="M6378 2703 c7 -3 16 -2 19 1 4 3 -2 6 -13 5 -11 0 -14 -3 -6 -6z"/>
<path d="M6468 2703 c29 -2 74 -2 100 0 26 2 2 3 -53 3 -55 0 -76 -1 -47 -3z"/>
<path d="M6668 2703 c23 -2 61 -2 85 0 23 2 4 4 -43 4 -47 0 -66 -2 -42 -4z"/>
<path d="M6350 2563 c-97 -5 -515 -45 -519 -49 -3 -2 108 -3 245 -1 137 2 261
0 276 -4 15 -4 30 -4 33 1 2 4 33 6 67 4 35 -1 101 -3 148 -3 47 0 94 0 105
-1 199 -4 657 -5 660 0 5 8 -293 37 -505 50 -136 9 -385 10 -510 3z"/>
<path d="M0 2511 c0 -21 2 -21 159 -19 88 2 157 6 155 9 -2 4 -63 10 -136 13
-73 4 -143 10 -155 13 -18 4 -23 1 -23 -16z"/>
<path d="M7408 2503 c17 -2 47 -2 65 0 17 2 3 4 -33 4 -36 0 -50 -2 -32 -4z"/>
<path d="M338 2493 c7 -3 16 -2 19 1 4 3 -2 6 -13 5 -11 0 -14 -3 -6 -6z"/>
<path d="M408 2493 c7 -3 16 -2 19 1 4 3 -2 6 -13 5 -11 0 -14 -3 -6 -6z"/>
<path d="M783 2493 c9 -2 23 -2 30 0 6 3 -1 5 -18 5 -16 0 -22 -2 -12 -5z"/>
<path d="M255 2341 c-250 -21 -255 -22 -255 -41 0 -18 29 -18 742 -14 408 3
743 6 745 8 1 1 -109 13 -245 26 -262 25 -800 36 -987 21z"/>
<path d="M7375 2340 c-250 -18 -404 -34 -399 -41 2 -4 11 -6 19 -3 8 3 19 2
26 -2 14 -8 159 -11 159 -3 0 3 72 6 160 5 l160 -1 0 28 c0 16 -5 26 -12 26
-7 -1 -58 -5 -113 -9z"/>
<path d="M6873 2303 c-79 -4 -96 -17 -36 -26 39 -7 113 10 113 25 0 4 -1 7 -2
6 -2 -1 -36 -4 -75 -5z"/>
<path d="M6760 2290 c0 -5 5 -10 10 -10 6 0 10 5 10 10 0 6 -4 10 -10 10 -5 0
-10 -4 -10 -10z"/>
<path d="M6473 2283 c15 -2 39 -2 55 0 15 2 2 4 -28 4 -30 0 -43 -2 -27 -4z"/>
<path d="M6568 2283 c7 -3 16 -2 19 1 4 3 -2 6 -13 5 -11 0 -14 -3 -6 -6z"/>
<path d="M6623 2283 c9 -2 25 -2 35 0 9 3 1 5 -18 5 -19 0 -27 -2 -17 -5z"/>
<path d="M6688 2283 c6 -2 18 -2 25 0 6 3 1 5 -13 5 -14 0 -19 -2 -12 -5z"/>
<path d="M0 2096 c0 -13 12 -16 54 -16 70 0 81 16 14 19 -29 1 -55 4 -60 7 -4
3 -8 -2 -8 -10z"/>
<path d="M130 2082 c0 -4 28 -8 63 -9 41 -1 55 2 42 7 -25 11 -105 13 -105 2z"/>
<path d="M288 2073 c7 -3 16 -2 19 1 4 3 -2 6 -13 5 -11 0 -14 -3 -6 -6z"/>
<path d="M240 1924 c-222 -17 -242 -20 -238 -42 3 -16 37 -17 448 -14 245 2
460 5 478 7 22 3 30 1 26 -7 -4 -6 -3 -8 3 -5 6 4 119 8 252 9 132 1 241 4
241 8 0 4 -35 10 -77 13 -43 4 -154 14 -248 23 -221 20 -662 24 -885 8z"/>
<path d="M7150 1904 c-140 -14 -284 -23 -320 -21 -36 2 -76 1 -90 -3 l-25 -8
27 -1 c14 -1 29 -7 31 -13 4 -9 8 -10 14 -2 11 16 203 25 203 10 0 -8 2 -8 8
0 4 6 46 12 96 13 49 1 93 4 97 7 4 2 10 0 13 -5 3 -5 39 -7 78 -4 40 3 106 5
146 5 70 -1 72 0 72 24 0 22 -4 24 -47 23 -27 -1 -163 -12 -303 -25z"/>
<path d="M1543 1873 c9 -2 25 -2 35 0 9 3 1 5 -18 5 -19 0 -27 -2 -17 -5z"/>
<path d="M6418 1873 c6 -2 18 -2 25 0 6 3 1 5 -13 5 -14 0 -19 -2 -12 -5z"/>
<path d="M6468 1873 c6 -2 18 -2 25 0 6 3 1 5 -13 5 -14 0 -19 -2 -12 -5z"/>
<path d="M6628 1873 c6 -2 18 -2 25 0 6 3 1 5 -13 5 -14 0 -19 -2 -12 -5z"/>
<path d="M0 1660 c0 -17 6 -19 63 -16 34 2 105 5 157 6 l95 3 -100 8 c-55 4
-126 10 -157 13 -53 5 -58 4 -58 -14z"/>
<path d="M528 1643 c7 -3 16 -2 19 1 4 3 -2 6 -13 5 -11 0 -14 -3 -6 -6z"/>
<path d="M648 1643 c7 -3 16 -2 19 1 4 3 -2 6 -13 5 -11 0 -14 -3 -6 -6z"/>
<path d="M7190 1474 c-135 -12 -279 -24 -320 -25 l-75 -3 80 -5 c44 -3 102 -2
128 2 33 6 53 4 62 -3 8 -7 18 -9 23 -6 7 4 251 18 370 20 37 0 42 3 42 23 0
28 15 28 -310 -3z"/>
<path d="M6768 1443 c7 -3 16 -2 19 1 4 3 -2 6 -13 5 -11 0 -14 -3 -6 -6z"/>
<path d="M6355 1299 c-82 -5 -190 -12 -240 -17 -49 -5 -95 -5 -101 -1 -13 11
-24 2 -19 -14 3 -7 6 -23 9 -37 18 -100 31 -160 36 -160 3 0 4 -16 2 -36 -3
-26 -1 -35 7 -30 15 10 14 -7 -1 -22 -10 -10 -10 -17 1 -34 10 -16 10 -22 1
-28 -8 -5 -7 -9 5 -14 9 -3 13 -10 10 -16 -3 -5 -3 -10 2 -10 4 0 8 -21 8 -47
1 -41 10 -108 15 -108 5 0 12 -44 11 -67 0 -18 4 -25 12 -22 8 3 14 -5 15 -18
1 -13 4 -34 5 -48 2 -14 5 -38 5 -53 1 -18 6 -26 13 -21 9 5 10 -1 5 -20 -4
-15 -3 -32 1 -39 11 -17 13 -56 3 -62 -5 -3 -7 -12 -4 -20 4 -8 11 -12 17 -8
6 3 7 1 3 -5 -3 -6 3 -27 14 -47 13 -24 20 -54 20 -91 0 -31 4 -53 9 -50 10 6
7 -101 -3 -111 -2 -3 0 -14 7 -24 9 -15 24 -19 71 -19 l58 0 -7 46 c-6 40 -4
46 9 41 9 -4 16 -2 16 4 0 6 7 9 15 5 8 -3 15 -2 15 3 0 4 20 8 45 9 25 0 53
6 61 13 13 10 17 10 25 -2 6 -10 9 -10 9 -1 0 8 25 12 88 14 55 0 21 4 -92 9
-99 4 -190 10 -202 13 -26 7 -41 47 -51 134 -6 57 -9 55 66 52 24 -1 41 2 38
7 -3 4 5 9 16 10 12 1 47 4 77 8 30 4 258 8 507 8 248 1 454 5 457 8 7 7 -119
22 -319 39 -139 12 -674 13 -785 1 -87 -9 -99 -6 -102 23 -5 78 -6 76 18 77
32 2 37 3 51 12 6 4 18 4 27 1 9 -3 16 -1 16 4 0 13 35 26 75 28 79 4 69 7
-69 20 -82 7 -151 15 -153 18 -2 2 -11 28 -19 57 -17 64 -18 113 -4 104 6 -4
17 -2 24 4 8 7 18 11 22 9 5 -1 20 4 33 11 15 8 41 11 69 8 24 -3 39 -1 32 3
-20 12 309 16 847 9 155 -1 285 0 289 4 4 4 -4 7 -17 7 -13 0 -117 9 -230 20
-307 28 -548 34 -843 20 -142 -6 -262 -8 -266 -3 -5 4 -13 34 -18 66 -8 52 -7
57 8 52 9 -3 36 1 59 10 24 8 55 12 70 9 18 -4 22 -3 13 4 -11 7 -9 10 7 15
12 3 21 0 21 -5 0 -6 7 -5 16 3 13 10 17 10 25 -2 5 -8 9 -9 9 -2 0 6 10 14
23 16 12 2 -3 5 -33 7 -30 1 -100 7 -155 13 l-100 12 -17 54 c-10 30 -21 70
-24 89 -6 31 -5 34 11 28 10 -4 21 -3 24 3 10 16 285 25 641 22 190 -2 404 -4
475 -5 72 -1 132 -3 135 -6 3 -3 37 -2 75 1 39 3 61 6 50 7 -11 1 -78 9 -150
17 -341 37 -689 50 -950 34z m-258 -511 c-3 -8 -6 -5 -6 6 -1 11 2 17 5 13 3
-3 4 -12 1 -19z"/>
<path d="M28 1233 c18 -2 45 -2 60 0 15 2 0 4 -33 4 -33 0 -45 -2 -27 -4z"/>
<path d="M148 1223 c12 -2 30 -2 40 0 9 3 -1 5 -23 4 -22 0 -30 -2 -17 -4z"/>
<path d="M813 1223 c15 -2 37 -2 50 0 12 2 0 4 -28 4 -27 0 -38 -2 -22 -4z"/>
<path d="M7228 1051 c-256 -26 -329 -39 -195 -33 40 1 109 3 155 3 45 1 82 4
82 8 0 3 52 5 115 3 l115 -3 0 25 c0 14 -3 25 -7 25 -5 -1 -124 -13 -265 -28z"/>
<path d="M6463 1013 c15 -2 39 -2 55 0 15 2 2 4 -28 4 -30 0 -43 -2 -27 -4z"/>
<path d="M6833 1013 c20 -2 54 -2 75 0 20 2 3 4 -38 4 -41 0 -58 -2 -37 -4z"/>
<path d="M1405 854 c-71 -7 -211 -23 -310 -34 -99 -11 -223 -23 -275 -26 -141
-10 -145 -25 -5 -19 385 16 573 11 715 -20 29 -6 31 -9 24 -38 -4 -18 -9 -54
-13 -82 l-6 -50 -65 -3 c-36 -2 -123 2 -195 7 -422 34 -520 40 -710 44 -117 2
-278 -2 -365 -9 -85 -7 -165 -13 -177 -13 -16 -1 -23 -7 -23 -21 0 -19 8 -19
337 -20 258 0 339 -3 345 -12 6 -10 8 -10 8 0 0 19 628 9 728 -13 92 -19 107
-32 95 -83 l-9 -37 -99 -12 c-55 -6 -212 -23 -350 -38 -137 -14 -259 -28 -270
-30 -28 -4 262 -6 420 -1 39 1 97 -2 130 -7 33 -5 73 -10 88 -11 53 -6 60 -24
47 -110 l-13 -76 -52 0 c-28 0 -146 9 -261 20 -342 32 -601 43 -834 36 -286
-9 -310 -12 -310 -42 l0 -23 157 1 c271 2 1117 -11 1148 -18 17 -3 50 -8 74
-10 57 -5 63 -12 51 -54 -13 -46 -13 -50 6 -50 8 0 12 5 9 10 -3 6 -2 10 3 10
15 0 39 80 37 123 -1 20 1 37 5 37 14 0 21 32 10 45 -11 14 -2 75 11 75 5 0 9
7 9 15 0 8 -5 15 -10 15 -6 0 -4 10 4 23 8 12 17 56 22 97 8 87 12 120 19 175
3 22 7 82 10 134 3 52 8 98 11 102 6 11 -7 10 -171 -7z m-615 -698 c0 -11 -10
-13 -42 -9 -64 8 -70 23 -10 23 38 0 52 -4 52 -14z"/>
<path d="M0 800 c0 -6 21 -10 48 -10 26 -1 88 -3 137 -5 78 -3 82 -3 30 4
-118 16 -215 21 -215 11z"/>
<path d="M413 783 c9 -2 23 -2 30 0 6 3 -1 5 -18 5 -16 0 -22 -2 -12 -5z"/>
<path d="M643 773 c9 -2 25 -2 35 0 9 3 1 5 -18 5 -19 0 -27 -2 -17 -5z"/>
<path d="M7270 614 c-113 -12 -224 -23 -248 -23 -27 -1 -41 -5 -37 -11 4 -6 9
-8 13 -6 6 3 315 17 457 20 34 1 41 5 43 24 2 13 -2 22 -10 21 -7 -1 -105 -12
-218 -25z"/>
<path d="M6888 573 c7 -3 16 -2 19 1 4 3 -2 6 -13 5 -11 0 -14 -3 -6 -6z"/>
<path d="M7465 380 c3 -5 13 -10 21 -10 8 0 14 5 14 10 0 6 -9 10 -21 10 -11
0 -17 -4 -14 -10z"/>
<path d="M0 366 c0 -2 11 -6 25 -8 13 -3 22 -1 19 3 -5 9 -44 13 -44 5z"/>
<path d="M88 353 c7 -3 16 -2 19 1 4 3 -2 6 -13 5 -11 0 -14 -3 -6 -6z"/>
<path d="M258 343 c7 -3 16 -2 19 1 4 3 -2 6 -13 5 -11 0 -14 -3 -6 -6z"/>
<path d="M608 333 c7 -3 16 -2 19 1 4 3 -2 6 -13 5 -11 0 -14 -3 -6 -6z"/>
<path d="M7235 179 c-162 -20 -206 -28 -147 -26 45 1 82 -2 82 -6 0 -5 5 -5
11 -2 9 6 178 17 282 18 32 0 37 3 37 24 0 16 -5 23 -17 22 -10 -1 -121 -14
-248 -30z"/>
<path d="M6923 143 c15 -2 39 -2 55 0 15 2 2 4 -28 4 -30 0 -43 -2 -27 -4z"/>
<path d="M6778 133 c23 -2 59 -2 80 0 20 2 1 4 -43 4 -44 0 -61 -2 -37 -4z"/>
</g>
</svg>
